HIERARCHY
ROOT hip
{
  OFFSET 0 0 0
  CHANNELS 6 Xposition Yposition Zposition Zrotation Yrotation Xrotation
  JOINT abdomen
  {
    OFFSET 0 20.6881 -0.73152
    CHANNELS 3 Zrotation Xrotation Yrotation
    JOINT chest
    {
      OFFSET 0 11.7043 -0.48768
      CHANNELS 3 Zrotation Xrotation Yrotation
      JOINT neck
      {
        OFFSET 0 22.1894 -2.19456
        CHANNELS 3 Zrotation Xrotation Yrotation
        JOINT head
        {
          OFFSET -0.24384 7.07133 1.2192
          CHANNELS 3 Zrotation Xrotation Yrotation
          JOINT leftEye
          {
            OFFSET 4.14528 8.04674 8.04672
            CHANNELS 3 Zrotation Xrotation Yrotation
            End Site
            {
              OFFSET 1 0 0
            }
          }
          JOINT rightEye
          {
            OFFSET -3.6576 8.04674 8.04672
            CHANNELS 3 Zrotation Xrotation Yrotation
            End Site
            {
              OFFSET 1 0 0
            }
          }
        }
      }
      JOINT rCollar
      {
        OFFSET -2.68224 19.2634 -4.8768
        CHANNELS 3 Zrotation Xrotation Yrotation
        JOINT rShldr
        {
          OFFSET -8.77824 -1.95073 1.46304
          CHANNELS 3 Zrotation Xrotation Yrotation
          JOINT rForeArm
          {
            OFFSET -28.1742 -1.7115 0.48768
            CHANNELS 3 Zrotation Xrotation Yrotation
            JOINT rHand
            {
              OFFSET -22.5879 0.773209 7.07136
              CHANNELS 3 Zrotation Xrotation Yrotation
              JOINT rThumb1
              {
                OFFSET -1.2192 -0.487915 3.41376
                CHANNELS 3 Zrotation Xrotation Yrotation
                JOINT rThumb2
                {
                  OFFSET -3.37035 -0.52449 3.41376
                  CHANNELS 3 Zrotation Xrotation Yrotation
                  End Site
                  {
                    OFFSET -1.78271 -1.18214 1.43049
                  }
                }
              }
              JOINT rIndex1
              {
                OFFSET -7.75947 0.938293 5.60832
                CHANNELS 3 Zrotation Xrotation Yrotation
                JOINT rIndex2
                {
                  OFFSET -2.54057 -0.884171 1.56538
                  CHANNELS 3 Zrotation Xrotation Yrotation
                  End Site
                  {
                    OFFSET -1.62519 -0.234802 1.16502
                  }
                }
              }
              JOINT rMid1
              {
                OFFSET -8.24714 1.18213 3.41376
                CHANNELS 3 Zrotation Xrotation Yrotation
                JOINT rMid2
                {
                  OFFSET -3.10165 -0.590103 1.0647
                  CHANNELS 3 Zrotation Xrotation Yrotation
                  End Site
                  {
                    OFFSET -2.48547 -0.328903 0.83742
                  }
                }
              }
              JOINT rRing1
              {
                OFFSET -8.82822 0.546677 1.51678
                CHANNELS 3 Zrotation Xrotation Yrotation
                JOINT rRing2
                {
                  OFFSET -2.60934 -0.819778 -0.0198488
                  CHANNELS 3 Zrotation Xrotation Yrotation
                  End Site
                  {
                    OFFSET -2.33842 -0.294052 0.168128
                  }
                }
              }
              JOINT rPinky1
              {
                OFFSET -8.27202 -0.0477905 -0.4584
                CHANNELS 3 Zrotation Xrotation Yrotation
                JOINT rPinky2
                {
                  OFFSET -1.82734 -0.647385 -0.700984
                  CHANNELS 3 Zrotation Xrotation Yrotation
                  End Site
                  {
                    OFFSET -1.69225 -0.51767 -0.607171
                  }
                }
              }
            }
          }
        }
      }
      JOINT lCollar
      {
        OFFSET 2.68224 19.2634 -4.8768
        CHANNELS 3 Zrotation Xrotation Yrotation
        JOINT lShldr
        {
          OFFSET 8.77824 -1.95073 1.46304
          CHANNELS 3 Zrotation Xrotation Yrotation
          JOINT lForeArm
          {
            OFFSET 28.1742 -1.7115 0.48768
            CHANNELS 3 Zrotation Xrotation Yrotation
            JOINT lHand
            {
              OFFSET 22.5879 0.773209 7.07136
              CHANNELS 3 Zrotation Xrotation Yrotation
              JOINT lThumb1
              {
                OFFSET 1.2192 -0.487915 3.41376
                CHANNELS 3 Zrotation Xrotation Yrotation
                JOINT lThumb2
                {
                  OFFSET 3.37035 -0.52449 3.41376
                  CHANNELS 3 Zrotation Xrotation Yrotation
                  End Site
                  {
                    OFFSET 1.78271 -1.18214 1.43049
                  }
                }
              }
              JOINT lIndex1
              {
                OFFSET 7.75947 0.938293 5.60832
                CHANNELS 3 Zrotation Xrotation Yrotation
                JOINT lIndex2
                {
                  OFFSET 2.54057 -0.884171 1.56538
                  CHANNELS 3 Zrotation Xrotation Yrotation
                  End Site
                  {
                    OFFSET 1.62519 -0.234802 1.16502
                  }
                }
              }
              JOINT lMid1
              {
                OFFSET 8.24714 1.18213 3.41376
                CHANNELS 3 Zrotation Xrotation Yrotation
                JOINT lMid2
                {
                  OFFSET 3.10165 -0.590103 1.0647
                  CHANNELS 3 Zrotation Xrotation Yrotation
                  End Site
                  {
                    OFFSET 2.48547 -0.328903 0.83742
                  }
                }
              }
              JOINT lRing1
              {
                OFFSET 8.82822 0.546677 1.51678
                CHANNELS 3 Zrotation Xrotation Yrotation
                JOINT lRing2
                {
                  OFFSET 2.60934 -0.819778 -0.0198488
                  CHANNELS 3 Zrotation Xrotation Yrotation
                  End Site
                  {
                    OFFSET 2.33842 -0.294052 0.168128
                  }
                }
              }
              JOINT lPinky1
              {
                OFFSET 8.27202 -0.0477905 -0.4584
                CHANNELS 3 Zrotation Xrotation Yrotation
                JOINT lPinky2
                {
                  OFFSET 1.82734 -0.647385 -0.700984
                  CHANNELS 3 Zrotation Xrotation Yrotation
                  End Site
                  {
                    OFFSET 1.69225 -0.51767 -0.607171
                  }
                }
              }
            }
          }
        }
      }
    }
  }
  JOINT rButtock
  {
    OFFSET -8.77824 4.35084 1.2192
    CHANNELS 3 Zrotation Xrotation Yrotation
    JOINT rThigh
    {
      OFFSET 0 -1.70687 -2.19456
      CHANNELS 3 Zrotation Xrotation Yrotation
      JOINT rShin
      {
        OFFSET 0 -36.8199 0.73152
        CHANNELS 3 Zrotation Xrotation Yrotation
        JOINT rFoot
        {
          OFFSET 0.73152 -45.1104 -5.12064
          CHANNELS 3 Zrotation Xrotation Yrotation
          End Site
          {
            OFFSET -1.1221 -3.69964 12.103
          }
        }
      }
    }
  }
  JOINT lButtock
  {
    OFFSET 8.77824 4.35084 1.2192
    CHANNELS 3 Zrotation Xrotation Yrotation
    JOINT lThigh
    {
      OFFSET 0 -1.70687 -2.19456
      CHANNELS 3 Zrotation Xrotation Yrotation
      JOINT lShin
      {
        OFFSET 0 -36.8199 0.73152
        CHANNELS 3 Zrotation Xrotation Yrotation
        JOINT lFoot
        {
          OFFSET -0.73152 -45.1104 -5.12064
          CHANNELS 3 Zrotation Xrotation Yrotation
          End Site
          {
            OFFSET 1.1221 -3.69964 12.103
          }
        }
      }
    }
  }
}
MOTION
Frames:	5
Frame Time:	0.00833333
-3.50469 76.1837 39.7261 -171.377 41.1028 198.001 0.385769 44.0798 -12.2187 1.85063 -3.83285 -1.79308 -11.8732 4.03526 9.65571 27.891 -48.8059 40.4555 -0.0 0.0 0.0 -0.0 0.0 0.0 -1.28354e-12 5.52527e-13 9.62864e-13 68.8198 32.2537 33.5337 -22.5522 -16.6089 45.3127 -0.743993 -23.7258 -3.5413 1.87897e-09 1.395e-09 6.20975e-09 3.09114e-09 2.45853e-09 1.0787e-08 1.87897e-09 1.395e-09 6.20974e-09 7.73091 5.47488 0.417314 1.87897e-09 1.39499e-09 6.20975e-09 2.90554 0.965183 0.102902 1.87898e-09 1.395e-09 6.20975e-09 10.2786 0.731801 0.0259123 1.87896e-09 1.395e-09 6.20975e-09 2.22167 -0.733487 -0.20892 -1.28368e-12 5.52418e-13 9.62582e-13 -58.4479 36.2 -52.2577 18.7693 -11.5377 -35.7724 2.53722 -40.4869 6.88645 -9.57765e-10 3.76947e-10 -4.71356e-09 -1.50139e-09 6.36584e-10 -8.18836e-09 -9.57765e-10 3.76957e-10 -4.71354e-09 -7.73091 5.47488 -0.417314 -9.5776e-10 3.76958e-10 -4.71355e-09 -2.90554 0.965183 -0.102902 -9.5777e-10 3.76959e-10 -4.71356e-09 -10.2786 0.731801 -0.0259123 -9.57762e-10 3.76953e-10 -4.71357e-09 -2.22167 -0.733487 0.20892 -2.03217e-16 0.0 -3.88251e-19 -16.288 -27.3081 -7.66703 -0.174975 26.7685 0.303163 -2.2735 -2.47379 -12.6878 2.03217e-16 0.0 3.88251e-19 42.8487 -47.6057 54.1366 1.14796 61.2332 -1.57544 1.81512 -6.30574 5.70124
-3.45483 76.153 39.7209 -171.161 40.786 198.464 0.422061 43.5215 -11.8448 1.624 -3.89842 -1.7341 -11.614 4.22364 9.60754 27.5262 -48.9883 40.121 -0.0 0.0 0.0 -0.0 0.0 0.0 -1.1799e-12 5.42339e-13 9.43134e-13 68.8534 32.9016 32.9264 -22.731 -16.8956 45.8137 -0.774434 -24.169 -3.61605 1.95686e-09 1.50212e-09 6.40053e-09 3.2209e-09 2.64756e-09 1.11188e-08 1.95686e-09 1.50212e-09 6.40052e-09 7.73091 5.47488 0.417314 1.95686e-09 1.50211e-09 6.40053e-09 2.90554 0.965183 0.102902 1.95687e-09 1.50212e-09 6.40053e-09 10.2786 0.731801 0.0259123 1.95685e-09 1.50212e-09 6.40053e-09 2.22167 -0.733487 -0.20892 -1.18005e-12 5.4223e-13 9.42885e-13 -57.8511 36.9985 -51.8204 19.1171 -11.9401 -36.5771 2.74378 -41.7061 7.19486 -1.20463e-09 3.60958e-10 -4.84122e-09 -1.91796e-09 6.07941e-10 -8.41611e-09 -1.20463e-09 3.60969e-10 -4.8412e-09 -7.73091 5.47488 -0.417314 -1.20462e-09 3.6097e-10 -4.84122e-09 -2.90554 0.965183 -0.102902 -1.20463e-09 3.60971e-10 -4.84122e-09 -10.2786 0.731801 -0.0259123 -1.20462e-09 3.60964e-10 -4.84123e-09 -2.22167 -0.733487 0.20892 -2.03217e-16 0.0 -3.88251e-19 -16.1856 -27.0311 -8.04998 -0.170691 26.4767 0.304219 -2.25154 -2.41924 -12.6724 2.03217e-16 0.0 3.88251e-19 43.7309 -47.5928 55.4269 1.16709 61.4628 -1.58329 1.78898 -5.99517 5.70272
-3.40787 76.0841 39.6653 -170.839 40.1345 198.876 0.643151 43.0543 -11.5969 1.44181 -3.98302 -1.68174 -11.4356 4.46542 9.55261 27.2425 -49.2052 39.8319 -0.0 0.0 0.0 -0.0 0.0 0.0 -1.03692e-12 6.04834e-13 9.08883e-13 68.914 33.5504 32.259 -22.904 -17.1766 46.3155 -0.804575 -24.5994 -3.68911 1.6602e-09 1.25052e-09 5.17562e-09 2.73663e-09 2.20455e-09 8.9936e-09 1.6602e-09 1.25052e-09 5.17561e-09 7.73091 5.47488 0.417314 1.6602e-09 1.25052e-09 5.17562e-09 2.90554 0.965183 0.102902 1.66021e-09 1.25052e-09 5.17562e-09 10.2786 0.731801 0.0259123 1.66019e-09 1.25053e-09 5.17562e-09 2.22167 -0.733487 -0.20892 -1.03707e-12 6.04758e-13 9.08645e-13 -57.4188 37.7177 -51.2449 19.44 -12.3192 -37.3516 2.87114 -42.4221 7.3816 -1.07726e-09 2.91046e-10 -4.28285e-09 -1.71589e-09 4.89651e-10 -7.44509e-09 -1.07726e-09 2.91054e-10 -4.28284e-09 -7.73091 5.47488 -0.417314 -1.07725e-09 2.91055e-10 -4.28285e-09 -2.90554 0.965183 -0.102902 -1.07726e-09 2.91057e-10 -4.28285e-09 -10.2786 0.731801 -0.0259123 -1.07726e-09 2.91051e-10 -4.28286e-09 -2.22167 -0.733487 0.20892 -2.03217e-16 0.0 -3.88251e-19 -16.0523 -26.5149 -8.5983 -0.16702 26.2816 0.309557 -2.28069 -2.56321 -12.6995 2.03217e-16 0.0 3.88251e-19 44.533 -47.5196 56.6378 1.18908 61.7221 -1.59324 1.79865 -5.77221 5.84229
-2.88223 76.2395 39.3759 -170.881 38.8746 197.877 0.992182 42.6061 -11.402 1.2673 -4.08673 -1.62881 -11.2943 4.75753 9.49335 27.006 -49.4585 39.5677 -0.0 0.0 0.0 -0.0 0.0 0.0 -8.4394e-13 7.23337e-13 8.58498e-13 69.0169 34.2142 31.5395 -23.0731 -17.4552 46.8201 -0.8356 -25.0324 -3.7631 1.06958e-09 7.60809e-10 2.97487e-09 1.76748e-09 1.34181e-09 5.17421e-09 1.06959e-09 7.60808e-10 2.97486e-09 7.73091 5.47488 0.417314 1.06959e-09 7.60805e-10 2.97487e-09 2.90554 0.965183 0.102902 1.06959e-09 7.60806e-10 2.97486e-09 10.2786 0.731801 0.0259123 1.06958e-09 7.6081e-10 2.97487e-09 2.22167 -0.733487 -0.20892 -8.44093e-13 7.23318e-13 8.58259e-13 -57.087 38.3945 -50.5542 19.7484 -12.6875 -38.1141 2.94533 -42.8398 7.49107 -7.52209e-10 1.80692e-10 -3.20185e-09 -1.19221e-09 3.04053e-10 -5.56331e-09 -7.52213e-10 1.80695e-10 -3.20184e-09 -7.73091 5.47488 -0.417314 -7.52205e-10 1.80697e-10 -3.20185e-09 -2.90554 0.965183 -0.102902 -7.52214e-10 1.80698e-10 -3.20185e-09 -10.2786 0.731801 -0.0259123 -7.52206e-10 1.80696e-10 -3.20186e-09 -2.22167 -0.733487 0.20892 -2.03217e-16 0.0 -3.88251e-19 -15.885 -25.8815 -9.28633 -0.163852 26.1745 0.318577 -2.34303 -2.85245 -12.7281 2.03217e-16 0.0 3.88251e-19 45.3649 -47.4199 57.8808 1.21562 62.0367 -1.60753 1.83777 -5.61447 6.10002
-2.80542 76.1437 39.2553 -170.566 38.2455 198.162 1.38604 42.1679 -11.2296 1.12015 -4.17718 -1.57447 -11.1878 4.9897 9.41557 26.747 -49.6345 39.24 -0.0 0.0 0.0 -0.0 0.0 0.0 -6.30489e-13 8.26856e-13 7.85255e-13 69.1328 34.8979 30.7964 -23.2638 -17.7779 47.3819 -0.867027 -25.4603 -3.83678 4.27321e-10 3.00043e-10 8.07039e-10 7.08992e-10 5.29376e-10 1.41023e-09 4.27321e-10 3.00042e-10 8.07036e-10 7.73091 5.47488 0.417314 4.27324e-10 3.00039e-10 8.07039e-10 2.90554 0.965183 0.102902 4.27325e-10 3.0004e-10 8.07038e-10 10.2786 0.731801 0.0259123 4.27314e-10 3.00044e-10 8.07042e-10 2.22167 -0.733487 -0.20892 -6.30636e-13 8.26895e-13 7.8501e-13 -56.7748 39.0573 -49.8293 20.0951 -13.1206 -38.9554 3.00019 -43.156 7.57336 -4.3836e-10 5.65683e-11 -1.99964e-09 -6.92145e-10 9.43635e-11 -3.47277e-09 -4.38366e-10 5.6567e-11 -1.99962e-09 -7.73091 5.47488 -0.417314 -4.38356e-10 5.65688e-11 -1.99964e-09 -2.90554 0.965183 -0.102902 -4.38365e-10 5.65708e-11 -1.99964e-09 -10.2786 0.731801 -0.0259123 -4.38356e-10 5.65712e-11 -1.99965e-09 -2.22167 -0.733487 0.20892 -2.03217e-16 0.0 -3.88251e-19 -15.6774 -25.1059 -9.9947 -0.160665 26.0762 0.328542 -2.41913 -3.14429 -12.8446 2.03217e-16 0.0 3.88251e-19 46.1366 -47.2928 59.1062 1.24473 62.3821 -1.62557 1.91241 -5.56189 6.48017
